<?xml version="1.0" encoding="UTF-8"?>
<svg id="svg1791" width="1300" height="212" version="1.1" viewBox="0 0 343.96 56.092" xmlns="http://www.w3.org/2000/svg" xmlns:cc="http://creativecommons.org/ns#" xmlns:dc="http://purl.org/dc/elements/1.1/" xmlns:rdf="http://www.w3.org/1999/02/22-rdf-syntax-ns#">
 <metadata id="metadata1788">
  <rdf:RDF>
   <cc:Work rdf:about="">
    <dc:format>image/svg+xml</dc:format>
    <dc:type rdf:resource="http://purl.org/dc/dcmitype/StillImage"/>
    <dc:title/>
   </cc:Work>
  </rdf:RDF>
 </metadata>
 <g id="layer1" transform="translate(0 -240.91)">
  <g id="g2454">
   <rect id="rect893" x="1.6567e-5" y="240.91" width="343.96" height="56.092"/>
   <rect id="rect5342" x="1.6567e-5" y="240.91" width="130.17" height="56.092" fill="#fff"/>
   <g id="g865" transform="translate(0,2e-5)">
    <path id="path5231" d="m0 268.95v-28.045h138.6v56.089h-138.6zm72.871 20.169c6.2655-0.0316 6.6398-0.0436 7.5349-0.24171 1.855-0.41073 3.3909-1.0548 4.858-2.0371 0.99296-0.66482 2.8127-2.5038 3.4587-3.4952 3.3704-5.1729 2.7659-11.769-1.467-16.008-1.8188-1.8212-4.0436-3.0252-6.701-3.6264-0.82458-0.18649-1.3443-0.20619-6.8488-0.2608l-5.9565-0.0588-0.37068-0.28317c-0.55906-0.42718-0.95206-1.0236-0.95162-1.4441 5.3e-4 -0.69801 0.92428-1.7469 1.6269-1.8477 0.22285-0.0322 6.2274-0.0447 13.343-0.0298l12.938 0.0298 0.41071 0.21992c0.60085 0.32179 0.48216 0.17128 4.2848 5.4292 1.3951 1.9289 1.5009 2.1062 1.5009 2.5132 0 0.2408-0.0499 0.5311-0.11077 0.64507-0.0608 0.11392-1.0577 1.5741-2.2151 3.2447-3.3935 4.8983-10.987 15.997-11.334 16.565-0.1755 0.28736-0.31907 0.56794-0.31907 0.62325 0 0.0671 2.1159 0.0917 6.37 0.0728l6.37-0.0268 0.44861-0.26408c0.3703-0.21812 0.70614-0.63388 1.9239-2.3825 0.8114-1.1652 2.4815-3.5427 3.7114-5.2834l2.2361-3.1649 0.28083 0.33564c0.22127 0.26438 4.7815 6.7527 6.8479 9.7432 0.21748 0.31472 0.55581 0.67211 0.75186 0.79418l0.35644 0.222h6.3651c4.3727 0 6.3981-0.0331 6.4707-0.10564 0.0964-0.0964-4.8818-7.5035-11.905-17.714-1.994-2.8988-1.9716-2.8615-1.9716-3.276 0-0.41812-0.0373-0.35706 2.1824-3.5738 3.4659-5.0229 10.627-15.522 10.678-15.655 0.0406-0.10564-1.1072-0.1292-6.2318-0.12741-5.9026 2e-3 -6.3054 0.0124-6.678 0.1859-0.53392 0.24737-0.69277 0.43589-2.3529 2.79-2.3738 3.3662-4.6421 6.5006-4.7257 6.5303-0.0741 0.0268-2.407-3.2741-5.0286-7.1145-0.81443-1.193-1.2983-1.8059-1.5674-1.9854l-0.38935-0.25961h-17.11c-19.002 0-17.684-0.0439-19.777 0.65495-7.0468 2.3518-10.669 10.507-7.6894 17.31 1.3508 3.0842 4.0869 5.6568 7.2489 6.8157 1.9357 0.7095 1.8803 0.70442 8.5608 0.78329 3.7436 0.0445 6.1959 0.11157 6.4367 0.17725 0.45098 0.12293 0.80348 0.36585 1.0921 0.75296 0.29443 0.39487 0.29196 1.5173-0.0048 1.9151-0.29109 0.39101-0.72124 0.62005-1.3602 0.72417-0.30057 0.0489-4.9404 0.0985-10.311 0.11034-9.4941 0.0209-9.7733 0.0149-10.092-0.17068-0.18056-0.10564-0.40571-0.32469-0.50032-0.48689-0.09462-0.16233-0.81796-2.6623-1.6075-5.5558-3.7107-13.6-6.0295-21.973-6.1829-22.326-0.33406-0.76869-0.23682-0.75393-4.963-0.75435-4.5795-2.6e-4 -4.6247 6e-3 -4.9136 0.57214-0.076 0.14921-0.43658 1.3881-0.80127 2.7532-1.1476 4.2953-3.5427 12.902-3.6109 12.976-0.06232 0.0675-0.99224-3.2951-3.2553-11.77-0.56646-2.1212-1.0956-3.9571-1.1758-4.0797-0.28704-0.43867-0.43154-0.45212-4.8603-0.45212-4.7973 0-4.7604-6e-3 -5.0968 0.71405-0.11 0.23514-1.023 3.4207-2.0288 7.0789-1.0058 3.6582-3.4096 12.347-5.3416 19.309-1.932 6.9615-3.5435 12.8-3.581 12.975l-0.068234 0.31737 5.3937 9.9e-4c5.9034 8.1e-4 5.8065 0.0124 6.2355-0.5859 0.09827-0.13637 0.8272-2.521 1.6198-5.2989 1.6094-5.6404 2.5042-8.6732 2.6203-8.8808 0.19844-0.35502 0.66139 1.2355 3.2315 11.102 0.79454 3.0503 0.91572 3.4016 1.2317 3.5709 0.12332 0.066 1.8953 0.1023 5.0134 0.1023h4.8226l0.27238-0.27302c0.1918-0.19217 0.33801-0.52268 0.49417-1.1168 0.61793-2.3511 3.8351-13.797 3.8779-13.797 0.0514 2.1e-4 1.2005 4.0835 2.8911 10.273 0.53686 1.9656 1.044 3.757 1.1271 3.9808 0.21495 0.57966 0.55741 0.86474 1.1161 0.92905 0.44982 0.0519 9.3628 0.0405 23.221-0.0299z" fill="#000100"/>
   </g>
   <g id="text2359" fill="#fff" stroke-width=".29386" aria-label="AUDIO">
    <path id="path2432" d="m176.93 282.47h-14.215l-1.956 6.6669h-12.755l15.18-40.387h13.609l15.18 40.387h-13.058zm-2.6172-8.7331-4.463-14.518-4.4354 14.518z"/>
    <path id="path2434" d="m217.46 248.75h12.452v24.078q0 3.5814-1.1295 6.7771-1.102 3.1682-3.4988 5.565-2.3692 2.3692-4.9864 3.3335-3.6365 1.3499-8.7331 1.3499-2.9478 0-6.4465-0.41324-3.4712-0.41323-5.8129-1.6254-2.3417-1.2397-4.2977-3.4988-1.9284-2.259-2.6447-4.6558-1.1571-3.8569-1.1571-6.8322v-24.078h12.452v24.657q0 3.3059 1.8182 5.1793 1.8458 1.8458 5.0966 1.8458 3.2233 0 5.0415-1.8182 1.8458-1.8458 1.8458-5.2068z"/>
    <path id="path2436" d="m235.52 248.75h18.541q5.4823 0 8.8433 1.4877 3.3886 1.4877 5.5925 4.2701 2.2039 2.7825 3.1957 6.4741 0.99177 3.6916 0.99177 7.824 0 6.4741-1.4877 10.055-1.4601 3.5539-4.0773 5.9782-2.6172 2.3968-5.62 3.1957-4.1048 1.102-7.4383 1.102h-18.541zm12.48 9.1464v22.067h3.058q3.912 0 5.565-0.85402 1.653-0.88158 2.5896-3.0304 0.93667-2.1764 0.93667-7.0251 0-6.419-2.0937-8.7882-2.0937-2.3692-6.9424-2.3692z"/>
    <path id="path2438" d="m276.77 248.75h12.507v40.387h-12.507z"/>
    <path id="path2440" d="m293.69 268.97q0-9.8902 5.5098-15.4 5.5098-5.5098 15.345-5.5098 10.083 0 15.538 5.4272 5.4548 5.3996 5.4548 15.152 0 7.0802-2.3968 11.626-2.3692 4.5181-6.8873 7.0526-4.4905 2.507-11.213 2.507-6.8322 0-11.323-2.1764-4.463-2.1764-7.2454-6.8873t-2.7825-11.791zm12.48 0.0551q0 6.1159 2.259 8.7882 2.2866 2.6723 6.1986 2.6723 4.0222 0 6.2261-2.6172t2.2039-9.3943q0-5.7027-2.3141-8.3199-2.2866-2.6447-6.2261-2.6447-3.7742 0-6.0608 2.6723-2.2866 2.6723-2.2866 8.8433z"/>
   </g>
   <path id="path835-8" d="m132.59 268.95v-4.988h11.454v9.9759h-11.454z" fill="#fff" stroke-width=".36948"/>
  </g>
 </g>
</svg>
