<?xml version="1.0" encoding="UTF-8"?>
<svg id="svg4673" width="632" height="212" version="1.1" viewBox="0 0 167.22 56.092" xmlns="http://www.w3.org/2000/svg" xmlns:cc="http://creativecommons.org/ns#" xmlns:dc="http://purl.org/dc/elements/1.1/" xmlns:rdf="http://www.w3.org/1999/02/22-rdf-syntax-ns#">
 <metadata id="metadata4670">
  <rdf:RDF>
   <cc:Work rdf:about="">
    <dc:format>image/svg+xml</dc:format>
    <dc:type rdf:resource="http://purl.org/dc/dcmitype/StillImage"/>
    <dc:title/>
   </cc:Work>
  </rdf:RDF>
 </metadata>
 <g id="layer1" transform="translate(0 -240.91)">
  <rect id="rect5342" y="240.91" width="167.22" height="56.092" fill="#fff"/>
  <path id="path5231" d="m0 268.95v-28.045h138.65v56.089h-138.65zm72.897 20.169c6.2678-0.0316 6.6422-0.0436 7.5377-0.24171 1.8557-0.41073 3.3921-1.0548 4.8598-2.0371 0.99332-0.66482 2.8137-2.5038 3.4599-3.4952 3.3716-5.1729 2.7669-11.769-1.4675-16.008-1.8194-1.8212-4.0451-3.0252-6.7034-3.6264-0.82488-0.18649-1.3448-0.20619-6.8513-0.2608l-5.9587-0.0588-0.37081-0.28317c-0.55927-0.42718-0.95241-1.0236-0.95196-1.4441 5.3e-4 -0.69801 0.92462-1.7469 1.6275-1.8477 0.22293-0.0322 6.2296-0.0447 13.348-0.0298l12.943 0.0298 0.41086 0.21992c0.60106 0.32179 0.48233 0.17128 4.2864 5.4292 1.3956 1.9289 1.5015 2.1062 1.5015 2.5132 0 0.2408-0.0499 0.5311-0.11081 0.64507-0.0608 0.11392-1.0581 1.5741-2.2159 3.2447-3.3948 4.8983-10.991 15.997-11.338 16.565-0.17556 0.28736-0.31919 0.56794-0.31919 0.62325 0 0.0671 2.1167 0.0917 6.3723 0.0728l6.3723-0.0268 0.44877-0.26408c0.37043-0.21812 0.7064-0.63388 1.9246-2.3825 0.8117-1.1652 2.4824-3.5427 3.7127-5.2834l2.2369-3.1649 0.28093 0.33564c0.22135 0.26438 4.7832 6.7527 6.8504 9.7432 0.21756 0.31472 0.55601 0.67211 0.75213 0.79418l0.35657 0.222h6.3674c4.3743 0 6.4004-0.0331 6.473-0.10564 0.0964-0.0964-4.8835-7.5035-11.91-17.714-1.9947-2.8988-1.9723-2.8615-1.9723-3.276 0-0.41812-0.0373-0.35706 2.1831-3.5738 3.4672-5.0229 10.631-15.522 10.682-15.655 0.0406-0.10564-1.1076-0.1292-6.2341-0.12741-5.9047 2e-3 -6.3077 0.0124-6.6804 0.1859-0.53411 0.24737-0.69302 0.43589-2.3537 2.79-2.3747 3.3662-4.6437 6.5006-4.7274 6.5303-0.0741 0.0268-2.4078-3.2741-5.0304-7.1145-0.81473-1.193-1.2988-1.8059-1.568-1.9854l-0.38949-0.25961h-17.116c-19.009 0-17.69-0.0439-19.784 0.65495-7.0493 2.3518-10.673 10.507-7.6922 17.31 1.3513 3.0842 4.0884 5.6568 7.2515 6.8157 1.9364 0.7095 1.8809 0.70442 8.5639 0.78329 3.745 0.0445 6.1982 0.11157 6.439 0.17725 0.45115 0.12293 0.80377 0.36585 1.0925 0.75296 0.29454 0.39487 0.29206 1.5173-0.0048 1.9151-0.2912 0.39101-0.7215 0.62005-1.3607 0.72417-0.30068 0.0489-4.9422 0.0985-10.314 0.11034-9.4976 0.0209-9.7768 0.0149-10.096-0.17068-0.18063-0.10564-0.40586-0.32469-0.5005-0.48689-0.09465-0.16233-0.81826-2.6623-1.608-5.5558-3.7121-13.6-6.0317-21.973-6.1852-22.326-0.33418-0.76869-0.23691-0.75393-4.9648-0.75435-4.5812-2.6e-4 -4.6263 6e-3 -4.9154 0.57214-0.07603 0.14921-0.43674 1.3881-0.80156 2.7532-1.148 4.2953-3.544 12.902-3.6122 12.976-0.06234 0.0675-0.9926-3.2951-3.2565-11.77-0.56667-2.1212-1.096-3.9571-1.1763-4.0797-0.28714-0.43867-0.4317-0.45212-4.8621-0.45212-4.7991 0-4.7621-6e-3 -5.0987 0.71405-0.11004 0.23514-1.0233 3.4207-2.0295 7.0789-1.0062 3.6582-3.4108 12.347-5.3435 19.309-1.9327 6.9615-3.5448 12.8-3.5823 12.975l-0.068259 0.31737 5.3956 9.9e-4c5.9055 8.1e-4 5.8086 0.0124 6.2377-0.5859 0.09831-0.13637 0.8275-2.521 1.6204-5.2989 1.61-5.6404 2.5051-8.6732 2.6212-8.8808 0.19851-0.35502 0.66163 1.2355 3.2327 11.102 0.79483 3.0503 0.91605 3.4016 1.2321 3.5709 0.12336 0.066 1.896 0.1023 5.0152 0.1023h4.8244l0.27248-0.27302c0.19187-0.19217 0.33813-0.52268 0.49435-1.1168 0.61815-2.3511 3.8365-13.797 3.8793-13.797 0.05142 2.1e-4 1.2009 4.0835 2.8921 10.273 0.53706 1.9656 1.0444 3.757 1.1275 3.9808 0.21503 0.57966 0.55762 0.86474 1.1165 0.92905 0.44998 0.0519 9.3661 0.0405 23.229-0.0299zm68.565 5.965c0.0701-2.1593 0.25261-3.6929 0.62948-5.2863 0.87001-3.6783 2.5592-6.7986 5.0596-9.3462 0.42642-0.43447 1.8688-1.7001 3.2052-2.8126 4.576-3.809 5.5171-4.679 6.0283-5.5733 0.4639-0.81156 0.64887-1.6473 0.58977-2.6649-0.11591-1.9956-0.93057-3.0866-2.4214-3.2425-1.2919-0.13519-2.4217 0.54572-2.7518 1.6585-0.14189 0.47815-0.31947 1.9847-0.3794 3.2183l-0.0242 0.49636-9.8446 0.0536-0.069-0.92085c-0.0786-1.0496 0.065-2.61 0.33884-3.6818 1.4904-5.833 7.0955-10.011 13.096-9.7615 5.7706 0.2399 10.641 3.7674 11.881 8.6044 0.10492 0.40952 0.24177 0.95741 0.30403 1.2175 0.067 0.2799 0.1132 1.36 0.1132 2.6446 0 1.9855-0.0209 2.2515-0.24292 3.1009-0.59824 2.2881-1.6197 4.083-3.3649 5.9126-1.2958 1.3584-2.1556 2.0408-4.7232 3.7485-2.6 1.7292-3.8755 2.7374-4.9408 3.9054-0.44641 0.48946-0.81168 0.91756-0.81168 0.9513 0 0.0337 3.0572 0.0615 6.7938 0.0615h6.7938v9.6295h-25.321z" fill="#000100"/>
 </g>
</svg>
